<svg xmlns="http://www.w3.org/2000/svg" width="190" height="90" viewBox="0 0 190 90">
  <title>logo</title>
  <g>
    <path d="M78.951,57.3973a5.8449,5.8449,0,0,1,1.1365-3.4692,5.8562,5.8562,0,0,0,.1654,7.1906A5.925,5.925,0,0,1,78.951,57.3973Z" fill="#fff" opacity="0.28"/>
    <g>
      <path d="M65.1869,30.033V44.9162h-.0061A10.282,10.282,0,0,1,58.8392,54.67a10.1708,10.1708,0,0,1-11.7523-1.8825,38.3855,38.3855,0,0,1-4.5685-5.6462c-1.467-1.9742-2.7319-4.1012-4.24-6.0408a6.5825,6.5825,0,0,0-5.619-2.6841A6.5094,6.5094,0,0,0,28.6839,49.91a6.2881,6.2881,0,0,0,7.4152.498,24.1433,24.1433,0,0,0,3.0258-2.8129,9.7082,9.7082,0,0,0,.6425-.767l2.4972,3.8043A11.3613,11.3613,0,0,1,31.0475,55.516a10.2959,10.2959,0,0,1-4.7912-2.1444v16.78l2.7572-4.2694A25.8155,25.8155,0,0,0,43.615,70.3805c14.3261,0,25.9394-11.0348,25.9394-25.3608A27.7479,27.7479,0,0,0,65.1869,30.033Z" fill="#3dc0ef"/>
      <path d="M40.1662,36.9859a41.3066,41.3066,0,0,1,4.5111,5.5782c1.2967,1.7563,2.3794,3.671,3.6822,5.4223,1.4656,1.97,3.3214,3.3776,5.952,3.3789a6.511,6.511,0,0,0,4.2452-11.4981A6.5968,6.5968,0,0,0,50.95,39.392a10.7031,10.7031,0,0,0-1.8219,1.5507c-.5587.5681-1.0281,1.224-1.6268,1.9508q-1.304-1.881-2.5587-3.6917c3.4437-4.6653,8.099-5.8892,12.6023-4.6443a10.2428,10.2428,0,0,1,3.4285,1.6908V18.5016l-2.3294,4.8042A25.9378,25.9378,0,0,0,22.0432,58.8492V43.9659h.0362a10.7758,10.7758,0,0,1,5.2531-8.3312A10.62,10.62,0,0,1,40.1662,36.9859Z" fill="#3dc0ef"/>
    </g>
    <g>
      <path d="M80.9961,52.9571A5.7883,5.7883,0,0,1,83.6869,51.68,5.6088,5.6088,0,0,0,80.9961,52.9571Zm-.1627,8.7773a5.5493,5.5493,0,0,0,3.57,1.5081A5.77,5.77,0,0,1,80.8334,61.7344Zm3.57,1.5081c.0787.0055.16.0081.2414.0081h.0543C84.5982,63.2506,84.5006,63.248,84.4029,63.2425Z" fill="#424c5a"/>
      <path d="M88.6587,47.7709v5.3544a5.7341,5.7341,0,0,0-3.64-1.53q-.1547-.0081-.3091-.0082H84.685c-.0814,0-.1655.0028-.2468.0082-.0922.0027-.1845.0109-.2767.019-.16.0163-.3174.038-.4746.0651a5.7883,5.7883,0,0,0-2.6908,1.2776c-.0569.0488-.1139.1-.1708.1519-.0651.0569-.1275.1193-.19.1817-.0678.0651-.13.133-.1926.2008-.1221.1409-.2441.2847-.3553.4366a5.8449,5.8449,0,0,0-1.1365,3.4692,5.925,5.925,0,0,0,1.3019,3.7214c.06.076.1248.1492.1871.22s.1276.1384.1927.2034c.0651.0679.1329.133.2007.1926a5.77,5.77,0,0,0,3.57,1.5081c.0977.0055.1953.0081.2957.0081.0787,0,.1573-.0026.2332-.0053A6.1867,6.1867,0,0,0,88.74,61.4931a5.1639,5.1639,0,0,0,1.6459-4.0742v-9.648ZM84.7853,61.4931a3.9916,3.9916,0,0,1-3.9167-4.0551,3.937,3.937,0,1,1,3.9167,4.0551Z" fill="#424c5a"/>
      <path d="M98.3013,51.5872a5.8415,5.8415,0,1,0,5.7911,5.8725A5.771,5.771,0,0,0,98.3013,51.5872Zm0,9.8462a3.83,3.83,0,0,1-3.876-3.9548,3.9736,3.9736,0,0,1,3.876-4.0549,4.0234,4.0234,0,0,1,3.8761,4.0549A3.8742,3.8742,0,0,1,98.3013,61.4334Z" fill="#424c5a"/>
      <path d="M118.7606,51.5864a4.5492,4.5492,0,0,0-3.8446,2.2319,3.5184,3.5184,0,0,0-3.4059-2.2319,4.2915,4.2915,0,0,0-3.3758,1.5978V51.866h-1.8771V62.991h1.8771V58.2374a5.7455,5.7455,0,0,1,.8451-3.6767,2.8923,2.8923,0,0,1,2.271-1.1372,2.0328,2.0328,0,0,1,2.1377,1.9085c.0068.1627.02.3479.0354.5535.0286.391.0642.8774.0642,1.4132V62.991h1.8771V58.0975a7.2954,7.2954,0,0,1,.3612-2.6806,2.992,2.992,0,0,1,2.7749-1.9934,2.0475,2.0475,0,0,1,2.1379,1.7309c.0069.1372.0228.3.041.4852a12.7257,12.7257,0,0,1,.0785,1.3V62.991h1.8771V56.44C122.6354,53.4007,121.1868,51.5864,118.7606,51.5864Z" fill="#424c5a"/>
      <path d="M134.6372,51.8667v1.462a5.2324,5.2324,0,0,0-3.9764-1.7415,5.833,5.833,0,0,0-.0407,11.6634,5.52,5.52,0,0,0,4.0171-1.6681V62.99h1.8553V51.8667Zm-3.876,9.6264a3.9916,3.9916,0,0,1-3.9168-4.0551,3.9463,3.9463,0,1,1,3.9168,4.0551Z" fill="#424c5a"/>
      <rect x="139.87" y="51.866" width="1.8772" height="11.125" fill="#424c5a"/>
      <path d="M140.7886,47.4917a1.388,1.388,0,0,0,0,2.7759,1.4167,1.4167,0,0,0,1.3981-1.398A1.39,1.39,0,0,0,140.7886,47.4917Z" fill="#424c5a"/>
      <path d="M150.6362,51.5864a4.9392,4.9392,0,0,0-3.7154,1.7246V51.866h-1.8771V62.991h1.8771V58.2774c0-1.6751.1294-2.6406.8653-3.5974a3.1485,3.1485,0,0,1,2.59-1.3365c1.7822,0,2.5768,1.1152,2.5768,3.6156V62.991h1.8773V56.7793C154.8306,53.5278,153.2626,51.5864,150.6362,51.5864Z" fill="#424c5a"/>
    </g>
    <g>
      <path d="M90.8794,34.3959c-.016-.0936-.032-.1844-.048-.2753a.1126.1126,0,0,0-.0054-.0294c-.0187-.0882-.04-.1762-.0615-.2618a5.4941,5.4941,0,0,0-.2511-.7589c-.0348-.0829-.0722-.1657-.11-.2486-.04-.0828-.08-.1629-.12-.243-.0427-.08-.0882-.1578-.1336-.2353a5.5075,5.5075,0,0,0-.6653-.9032c-.0588-.0668-.12-.1308-.1844-.195s-.1283-.1257-.1951-.1871-.1336-.12-.2031-.1763a5.0125,5.0125,0,0,0-.66-.47c-.0775-.048-.155-.0908-.2352-.1362-.0775-.0428-.1577-.0829-.24-.1229s-.1657-.0775-.2485-.1122c-.0722-.0321-.1443-.0616-.2164-.0856-.0562-.0214-.1123-.0428-.1711-.0615a.6991.6991,0,0,0-.0961-.0321c-.0668-.0213-.1336-.04-.2032-.0614a5.667,5.667,0,0,0-1.459-.19,6.7082,6.7082,0,0,0-.9085.0589,5.4494,5.4494,0,0,0-3.4084,2.0153A5.9883,5.9883,0,0,0,79.723,35.088v9.4863h1.3788v-5.772A5.4856,5.4856,0,0,0,87.59,40.4618c.0588-.0241.1177-.0535.1764-.0829a5.65,5.65,0,0,0,3.1532-4.655c.0053-.0668.0107-.1309.0134-.1977.0053-.0989.008-.2.008-.2993A5.654,5.654,0,0,0,90.8794,34.3959Zm-5.6089,5.2588a4.3552,4.3552,0,0,1,0-8.7087A4.27,4.27,0,0,1,89.5246,35.28,4.3308,4.3308,0,0,1,85.2705,39.6547Z" fill="#424c5a"/>
      <path d="M102.5355,29.8932v1.9641A5.0928,5.0928,0,0,0,98.2414,29.61a5.65,5.65,0,0,0-.04,11.2982,5.448,5.448,0,0,0,4.3343-2.1058v1.8438H103.89V29.8932Zm-4.1926,9.7615A4.3142,4.3142,0,0,1,94.11,35.28a4.2632,4.2632,0,1,1,4.2328,4.3743Z" fill="#424c5a"/>
      <path d="M111.1641,29.61a3.44,3.44,0,0,0-2.7737,1.8438V29.8932h-1.459V40.6461h1.459v-4.091a14.8391,14.8391,0,0,1,.2218-3.26c.4034-1.4777,1.3147-2.3489,2.3275-2.3489a1.66,1.66,0,0,1,.73.2032l.73-1.1731A2.1646,2.1646,0,0,0,111.1641,29.61Z" fill="#424c5a"/>
      <path d="M122.863,29.8932v1.9641a5.093,5.093,0,0,0-4.2943-2.2474,5.65,5.65,0,0,0-.04,11.2982,5.4483,5.4483,0,0,0,4.3343-2.1058v1.8438h1.3548V29.8932ZM118.67,39.6547a4.3142,4.3142,0,0,1-4.2328-4.3743,4.2645,4.2645,0,1,1,4.2328,4.3743Z" fill="#424c5a"/>
      <path d="M128.1459,25.7433V40.6461h1.3763V25.7433Z" fill="#424c5a"/>
      <path d="M134.22,25.7433V40.6461h1.3763V25.7433Z" fill="#424c5a"/>
      <path d="M144.4437,39.6547a4.0921,4.0921,0,0,1-4.0484-4.2728h9.6787a5.48,5.48,0,0,0-5.5689-5.772,5.5419,5.5419,0,0,0-5.5287,5.6892,5.4545,5.4545,0,0,0,5.6089,5.609,5.38,5.38,0,0,0,5.1253-3.2174l-1.1544-.6093A4.515,4.515,0,0,1,144.4437,39.6547Zm.0828-8.7087a3.9507,3.9507,0,0,1,4.03,3.22h-8.0193A3.9481,3.9481,0,0,1,144.5265,30.946Z" fill="#424c5a"/>
      <path d="M153.4543,25.7433V40.6461h1.3763V25.7433Z" fill="#424c5a"/>
    </g>
  </g>
</svg>
